<svg width="808" height="219" viewBox="0 0 808 219" version="1.1" xmlns="http://www.w3.org/2000/svg" xmlns:xlink="http://www.w3.org/1999/xlink">
<title>bla&#195;&#176;s&#195;&#173;&#195;&#176;an</title>
<desc>Created using Figma</desc>
<g id="Canvas" transform="translate(-565 549)">
<g id="bla&#195;&#176;s&#195;&#173;&#195;&#176;an" filter="url(#filter0_d)">
<g id="bla&#195;&#176;s&#195;&#173;&#195;&#176;an">
<use xlink:href="#path0_fill" transform="translate(565 -548.961)" fill="#FFEEBA"/>
</g>
<g id="Vector">
<use xlink:href="#path1_stroke" transform="translate(565 -549)" fill="#F2994A"/>
</g>
</g>
</g>
<defs>
<filter id="filter0_d" filterUnits="userSpaceOnUse" x="564" y="-549" width="810" height="219" color-interpolation-filters="sRGB">
<feFlood flood-opacity="0" result="BackgroundImageFix"/>
<feColorMatrix in="SourceAlpha" type="matrix" values="0 0 0 0 0 0 0 0 0 0 0 0 0 0 0 0 0 0 255 0"/>
<feOffset dx="4" dy="4"/>
<feGaussianBlur stdDeviation="2"/>
<feColorMatrix type="matrix" values="0 0 0 0 0 0 0 0 0 0 0 0 0 0 0 0 0 0 0.25 0"/>
<feBlend mode="normal" in2="BackgroundImageFix" result="effect1_dropShadow"/>
<feBlend mode="normal" in="SourceGraphic" in2="effect1_dropShadow" result="shape"/>
</filter>
<path id="path0_fill" d="M 0 4.0385C 0 1.80812 1.81156 4.00543e-05 4.04623 4.00543e-05L 795.954 -1.52588e-05C 798.188 -1.52588e-05 800 1.80807 800 4.03845L 800 205.962C 800 208.192 798.188 210 795.954 210L 4.04623 210C 1.81156 210 0 208.192 0 205.962L 0 192.837C 0 190.606 1.81156 188.798 4.04623 188.798L 5.95343 188.798C 7.60187 188.798 9.01871 189.868 10.1077 191.103C 11.5907 192.785 13.7636 193.846 16.1849 193.846C 20.6543 193.846 24.2774 190.23 24.2774 185.769C 24.2774 181.309 20.6543 177.693 16.1849 177.693C 13.7636 177.693 11.5907 178.754 10.1077 180.436C 9.01871 181.671 7.60187 182.741 5.95343 182.741L 4.04623 182.741C 1.81156 182.741 0 180.932 0 178.702L 0 160.529C 0 158.299 1.81156 156.491 4.04623 156.491L 5.95343 156.491C 7.60187 156.491 9.01871 157.56 10.1077 158.795C 11.5907 160.477 13.7636 161.539 16.1849 161.539C 20.6543 161.539 24.2774 157.922 24.2774 153.462C 24.2774 149.001 20.6543 145.385 16.1849 145.385C 13.7636 145.385 11.5907 146.446 10.1077 148.128C 9.01871 149.363 7.60187 150.433 5.95343 150.433L 4.04623 150.433C 1.81156 150.433 0 148.625 0 146.394L 0 128.221C 0 125.991 1.81156 124.183 4.04623 124.183L 5.95343 124.183C 7.60187 124.183 9.01871 125.252 10.1077 126.487C 11.5907 128.169 13.7636 129.231 16.1849 129.231C 20.6543 129.231 24.2774 125.615 24.2774 121.154C 24.2774 116.693 20.6543 113.077 16.1849 113.077C 13.7636 113.077 11.5907 114.138 10.1077 115.82C 9.01871 117.055 7.60187 118.125 5.95343 118.125L 4.04623 118.125C 1.81156 118.125 0 116.317 0 114.087L 0 95.9134C 0 93.6831 1.81156 91.875 4.04623 91.875L 5.95343 91.875C 7.60187 91.875 9.01871 92.9446 10.1077 94.1798C 11.5907 95.8617 13.7636 96.9231 16.1849 96.9231C 20.6543 96.9231 24.2774 93.3069 24.2774 88.8461C 24.2774 84.3854 20.6543 80.7692 16.1849 80.7692C 13.7636 80.7692 11.5907 81.8305 10.1077 83.5125C 9.01871 84.7476 7.60187 85.8173 5.95343 85.8173L 4.04623 85.8173C 1.81156 85.8173 0 84.0092 0 81.7788L 0 63.6058C 0 61.3754 1.81156 59.5673 4.04623 59.5673L 5.95343 59.5673C 7.60187 59.5673 9.01871 60.637 10.1077 61.8721C 11.5907 63.554 13.7636 64.6154 16.1849 64.6154C 20.6543 64.6154 24.2774 60.9992 24.2774 56.5384C 24.2774 52.0777 20.6543 48.4615 16.1849 48.4615C 13.7636 48.4615 11.5907 49.5228 10.1077 51.2048C 9.01871 52.4399 7.60187 53.5096 5.95343 53.5096L 4.04623 53.5096C 1.81156 53.5096 0 51.7015 0 49.4711L 0 31.2981C 0 29.0677 1.81156 27.2597 4.04623 27.2597L 5.95343 27.2597C 7.60187 27.2597 9.01871 28.3293 10.1077 29.5644C 11.5907 31.2464 13.7636 32.3077 16.1849 32.3077C 20.6543 32.3077 24.2774 28.6916 24.2774 24.2308C 24.2774 19.7701 20.6543 16.1539 16.1849 16.1539C 13.7636 16.1539 11.5907 17.2152 10.1077 18.8972C 9.01871 20.1323 7.60187 21.202 5.95343 21.202L 4.04623 21.202C 1.81156 21.202 0 19.3939 0 17.1635L 0 4.0385Z"/>
<path id="path1_stroke" d="M 64 0L 64 190.817L 65 190.817L 65 0L 64 0ZM 0 40.5L 800 40.5L 800 39.5L 0 39.5L 0 40.5ZM 0.000192308 72.8077L 800 72.5L 800 71.5L -0.000192308 71.8077L 0.000192308 72.8077ZM 0.63424 105.115L 800.001 104.192L 799.999 103.192L 0.633085 104.115L 0.63424 105.115ZM 0.63424 137.423L 800.001 136.5L 799.999 135.5L 0.633085 136.423L 0.63424 137.423Z"/>
</defs>
</svg>
