<svg width="41" height="32" viewBox="0 0 41 32" version="1.1" xmlns="http://www.w3.org/2000/svg" xmlns:xlink="http://www.w3.org/1999/xlink">
<title>gormur</title>
<desc>Created using Figma</desc>
<g id="Canvas" transform="translate(41 690)">
<clipPath id="clip-0" clip-rule="evenodd">
<path d="M -41 -690L 0 -690L 0 -658L -41 -658L -41 -690Z" fill="#FFFFFF"/>
</clipPath>
<g id="gormur" clip-path="url(#clip-0)">
<g id="Group">
<g id="Canvas">
<g id="gormur">
<g id="Ellipse">
<g id="Vector">
<use xlink:href="#path0_fill" transform="translate(-16.5 -674)" fill="#BDBDBD"/>
</g>
</g>
<g id="Rectangle">
<g id="Vector">
<use xlink:href="#path1_fill" transform="translate(-24.5 -672)" fill="url(#paint1_linear)"/>
</g>
</g>
<g id="Ellipse" filter="url(#filter0_i)">
<g id="Vector">
<use xlink:href="#path2_fill" transform="translate(-14.5 -674)" fill="#FFFFFF"/>
</g>
</g>
<g id="Vector 2">
<g id="Vector 2">
<g id="Vector">
<use xlink:href="#path3_fill" transform="translate(-40.5 -664)" fill="url(#paint3_linear)"/>
</g>
<g id="Vector">
<use xlink:href="#path4_fill" transform="translate(-41 -664.5)"/>
</g>
</g>
</g>
<g id="Vector 2">
<g id="Vector 2">
<g id="Vector">
<use xlink:href="#path3_fill" transform="translate(-40.5 -670)" fill="url(#paint5_linear)"/>
</g>
<g id="Vector">
<use xlink:href="#path4_fill" transform="translate(-41 -670.5)"/>
</g>
</g>
</g>
</g>
</g>
</g>
</g>
</g>
<defs>
<filter id="filter0_i" filterUnits="userSpaceOnUse" x="-15" y="-674" width="15" height="20" color-interpolation-filters="sRGB">
<feFlood flood-opacity="0" result="BackgroundImageFix"/>
<feBlend mode="normal" in="SourceGraphic" in2="BackgroundImageFix" result="shape"/>
<feColorMatrix in="SourceAlpha" type="matrix" values="0 0 0 0 0 0 0 0 0 0 0 0 0 0 0 0 0 0 255 0" result="hardAlpha"/>
<feOffset dx="0" dy="4"/>
<feGaussianBlur stdDeviation="2"/>
<feComposite in2="hardAlpha" operator="arithmetic" k2="-1" k3="1"/>
<feColorMatrix type="matrix" values="0 0 0 0 0 0 0 0 0 0 0 0 0 0 0 0 0 0 0.25 0"/>
<feBlend mode="normal" in2="shape" result="effect1_innerShadow"/>
</filter>
<linearGradient id="paint1_linear" x1="0" y1="0" x2="1" y2="0" gradientUnits="userSpaceOnUse" gradientTransform="matrix(-1.83682e-13 14 -9.22992 -1.27089e-06 13.7036 1.27089e-06)">
<stop offset="0" stop-color="#000000" stop-opacity="0"/>
<stop offset="0.209945" stop-color="#000000" stop-opacity="0.52"/>
<stop offset="1" stop-color="#000000" stop-opacity="0"/>
</linearGradient>
<linearGradient id="paint3_linear" x1="0" y1="0" x2="1" y2="0" gradientUnits="userSpaceOnUse" gradientTransform="matrix(32 1.40884e-14 4.6868e-14 512 -1.15963e-13 -510)">
<stop offset="0.0994475"/>
<stop offset="0.0995475"/>
<stop offset="0.464088"/>
<stop offset="0.629834" stop-color="#828282"/>
<stop offset="0.685083" stop-color="#E0E0E0"/>
<stop offset="0.79558" stop-color="#828282"/>
<stop offset="0.900553"/>
</linearGradient>
<linearGradient id="paint5_linear" x1="0" y1="0" x2="1" y2="0" gradientUnits="userSpaceOnUse" gradientTransform="matrix(32 1.40884e-14 4.6868e-14 512 -1.15963e-13 -510)">
<stop offset="0.0994475"/>
<stop offset="0.0995475"/>
<stop offset="0.464088"/>
<stop offset="0.629834" stop-color="#828282"/>
<stop offset="0.685083" stop-color="#E0E0E0"/>
<stop offset="0.79558" stop-color="#828282"/>
<stop offset="0.900553"/>
</linearGradient>
<path id="path0_fill" d="M 16 8C 16 12.4183 12.4183 16 8 16C 3.58172 16 0 12.4183 0 8C 0 3.58172 3.58172 0 8 0C 12.4183 0 16 3.58172 16 8Z"/>
<path id="path1_fill" d="M 0 0L 17 0L 17 14L 0 14L 0 0Z"/>
<path id="path2_fill" d="M 14 8C 14 12.4183 10.866 16 7 16C 3.13401 16 0 12.4183 0 8C 0 3.58172 3.13401 0 7 0C 10.866 0 14 3.58172 14 8Z"/>
<path id="path3_fill" d="M 32 0L 0 0L 0 2L 32 2L 32 0Z"/>
<path id="path4_fill" d="M 0.5 0.5L 0.5 0L 0 0L 0 0.5L 0.5 0.5ZM 32.5 0.5L 33 0.5L 33 0L 32.5 0L 32.5 0.5ZM 32.5 2.5L 32.5 3L 33 3L 33 2.5L 32.5 2.5ZM 0.5 2.5L 0 2.5L 0 3L 0.5 3L 0.5 2.5ZM 0.5 1L 32.5 1L 32.5 0L 0.5 0L 0.5 1ZM 32 0.5L 32 2.5L 33 2.5L 33 0.5L 32 0.5ZM 32.5 2L 0.5 2L 0.5 3L 32.5 3L 32.5 2ZM 1 2.5L 1 0.5L 0 0.5L 0 2.5L 1 2.5Z"/>
</defs>
</svg>
