<svg width="128" height="56" viewBox="0 0 128 56" version="1.1" xmlns="http://www.w3.org/2000/svg" xmlns:xlink="http://www.w3.org/1999/xlink">
<title>paperclip_flipped</title>
<desc>Created using Figma</desc>
<g id="Canvas" transform="translate(-288 799)">
<clipPath id="clip-0" clip-rule="evenodd">
<path d="M 416 -799L 288 -799L 288 -743L 416 -743L 416 -799Z" fill="#FFFFFF"/>
</clipPath>
<g id="paperclip_flipped" clip-path="url(#clip-0)">
<g id="paperclip">
<g id="Vector">
<use xlink:href="#path0_fill" transform="matrix(1 -1.07325e-08 -1.07325e-08 -1 293.257 -750.861)" fill="#333333"/>
</g>
<g id="Vector">
<use xlink:href="#path1_fill" transform="matrix(1 -1.07325e-08 -1.07325e-08 -1 293.897 -751.494)" fill="#E0E0E0"/>
</g>
</g>
</g>
</g>
<defs>
<path id="path0_fill" d="M 107.884 41.1135C 111.54 41.061 115.099 40.6596 118.123 38.315L 119.559 36.4561C 120.723 34.0903 120.836 31.5745 120.696 29.0006C 120.54 26.007 120.466 23.0029 120.393 20.0082L 120.368 18.9981C 120.31 16.7618 119.565 14.7936 118.202 13.033L 116.053 11.3724C 115.896 11.3051 114.901 11.435 114.743 11.3724L 114.743 12.6389C 116.704 14.0354 118.499 16.1032 118.527 19.129C 118.563 21.0883 118.634 23.0431 118.705 24.9998C 118.768 26.743 118.832 28.4879 118.87 30.2387C 118.95 33.2457 118.241 35.9404 115.5 37.6817C 114.022 38.6176 112.358 39.113 110.627 39.1915L 109.856 39.2276C 106.597 39.3809 103.322 39.535 100.063 39.388C 88.5575 38.8792 77.0527 38.2801 65.5602 37.5762C 56.2817 37.0146 47.007 36.3547 37.7291 35.6946C 35.334 35.5243 32.9388 35.3539 30.5432 35.1851C 26.6127 34.9116 22.6647 34.6016 18.7353 34.2377C 15.9809 33.9822 13.2554 33.4522 11.0164 31.6998C 9.55139 30.5453 8.12066 29.2575 7.03979 27.7833C 5.12713 25.1642 3.37573 22.3956 1.7843 19.5681C -0.146306 16.1132 0.237788 13.6016 2.77478 10.584C 4.01397 9.09821 5.26757 7.62354 6.52441 6.17426C 9.1596 3.11835 12.6174 1.63398 16.509 1.00983C 19.7009 0.496343 22.9053 0.676824 26.1142 0.85761C 26.3729 0.872136 26.6316 0.886724 26.8903 0.900945C 48.2749 2.09974 69.6451 3.28742 91.0121 4.44977C 92.0115 4.50599 93.0098 4.56128 94.0072 4.61658C 96.4459 4.75165 98.8799 4.88648 101.316 5.03412C 101.657 5.05835 101.986 5.14948 102.314 5.24061C 102.424 5.271 102.533 5.3014 102.644 5.32935C 102.639 5.39466 102.638 5.46277 102.637 5.53089C 102.636 5.59839 102.635 5.6659 102.631 5.73066C 102.512 5.753 102.392 5.7804 102.273 5.80774C 101.963 5.87867 101.655 5.94941 101.354 5.93177C 96.9265 5.69513 92.4861 5.44861 88.0455 5.20215C 85.8303 5.07917 83.6152 4.95624 81.4016 4.83448C 74.1016 4.43525 66.8005 4.02973 59.4998 3.62421C 52.1987 3.21863 44.8979 2.81305 37.5978 2.41388C 36.009 2.33033 34.4198 2.24207 32.8301 2.15375C 29.1832 1.95124 25.5344 1.7486 21.8866 1.60212C 19.0471 1.48633 16.2347 1.77973 13.5012 2.68195C 10.8294 3.56348 8.58734 5.07367 6.82122 7.27112C 6.22045 8.02186 5.60723 8.75818 4.9942 9.49427C 4.25915 10.3768 3.52435 11.259 2.81189 12.1652C 1.41351 13.9162 1.14135 15.8978 2.05169 17.9481C 3.96832 22.1913 6.45459 26.0526 9.68927 29.4189C 12.0886 31.9116 15.1799 32.9752 18.5455 33.269C 23.8018 33.722 29.0582 34.1749 34.3268 34.5232C 38.1305 34.7717 41.934 35.0217 45.7373 35.2717C 60.9495 36.2717 76.1615 37.2717 91.3934 38.1702C 96.0544 38.4481 100.738 38.4479 105.419 38.4477C 106.56 38.4476 107.701 38.4476 108.842 38.4516C 110.159 38.4645 111.476 38.1808 112.765 37.8749C 116.153 37.0442 118.045 34.6244 118.002 31.0067C 117.964 26.7307 117.822 22.4423 117.617 18.1747C 117.53 16.2586 115.991 14.8957 114.743 13.8088L 114.743 15.3037C 115.723 16.239 117.075 17.3596 117.139 19.0608C 117.298 23.1794 117.421 27.3156 117.529 31.4407C 117.589 34.5921 116.065 36.5654 113.001 37.3035C 111.988 37.5484 110.935 37.7855 109.889 37.7767C 108.569 37.7742 107.249 37.7795 105.928 37.7849C 101.853 37.8013 97.7762 37.8177 93.7063 37.6052C 79.5616 36.8391 65.4293 35.9683 51.287 35.0213C 42.2978 34.4181 33.3306 33.7025 24.3536 32.9861C 22.6635 32.8513 20.973 32.7164 19.2819 32.5822C 16.1689 32.3465 13.3081 31.3696 11.0841 29.0351C 8.14257 25.9409 5.90209 22.3837 3.99383 18.6036C 2.9566 16.5694 3.07202 14.6722 4.59729 12.905C 5.80664 11.4876 7.01269 10.0447 8.17913 8.59406C 10.1551 6.12488 12.705 4.60132 15.7693 3.86329C 18.9208 3.10126 22.098 3.13538 25.295 3.32172C 50.7714 4.75654 76.2588 6.17707 101.746 7.59766L 102.024 7.6131C 102.505 7.64216 102.993 7.63154 103.458 7.53376C 104.201 7.40046 104.582 6.84925 104.602 6.11164C 104.634 5.35981 104.261 4.7754 103.508 4.53595C 103.279 4.45563 103.02 4.43494 102.763 4.41437C 102.717 4.41077 102.672 4.40711 102.627 4.40314C 97.8081 4.13172 92.9899 3.85987 88.1719 3.58802C 67.0738 2.39747 45.9812 1.20722 24.8855 0.0600635C 22.314 -0.0768994 19.696 0.0241138 17.1296 0.324895C 13.0374 0.794011 9.4151 2.40247 6.5802 5.50959C 6.12854 6.00544 5.67407 6.50489 5.2196 7.00434C 4.76513 7.50373 4.31066 8.00318 3.859 8.49903L 1.09759 12.0739C 1.05145 12.183 1.00689 12.2935 0.962337 12.4039C 0.873409 12.6242 0.784541 12.8445 0.682918 13.055C -0.482243 15.5112 -0.0354658 17.8655 1.11407 20.1691C 3.1026 24.1711 5.50732 27.9009 8.5877 31.1708C 8.66259 31.2515 8.71545 31.3608 8.76831 31.4702L 11.6345 33.6842C 14.7142 35.3554 18.0664 35.8443 21.4762 36.0809C 26.7205 36.4386 31.965 36.7983 37.2098 37.1579C 50.835 38.0922 64.462 39.0267 78.0914 39.9272L 79.4066 40.0146C 88.8937 40.6454 98.3751 41.2758 107.884 41.1135Z"/>
<path id="path1_fill" d="M 114.103 12.0063C 116.092 13.3993 117.913 15.4273 117.966 18.4606C 118.001 20.3999 118.072 22.3416 118.143 24.2813C 118.207 26.0473 118.272 27.8114 118.309 29.5702C 118.374 32.5662 117.68 35.272 114.939 37.0133C 113.461 37.9492 111.786 38.4589 110.066 38.523C 109.698 38.5389 109.33 38.5552 108.963 38.5715C 105.802 38.7116 102.639 38.8518 99.5023 38.7196C 87.9964 38.2108 76.4915 37.6116 64.9989 36.9078C 55.7223 36.3463 46.4492 35.6865 37.173 35.0266C 34.7763 34.8561 32.3793 34.6856 29.982 34.5167C 26.0515 34.2432 22.1035 33.9332 18.1742 33.5693C 15.4197 33.3137 12.6799 32.7727 10.4553 31.0314C 9.00454 29.8879 7.56277 28.6144 6.47867 27.1148C 4.56601 24.4957 2.81454 21.7272 1.22311 18.8997C -0.707491 15.4448 -0.334445 12.9475 2.21359 9.91554C 2.62491 9.43171 3.03348 8.94819 3.44162 8.46516C 4.27737 7.47608 5.11136 6.48915 5.96322 5.50581C 8.59842 2.4499 12.0451 0.979808 15.9478 0.341441C 19.25 -0.189809 22.5756 0.00861609 25.8868 0.206187L 26.3291 0.232493C 37.0143 0.826365 47.703 1.42298 58.3918 2.0196C 69.0805 2.61622 79.7692 3.21284 90.4543 3.80671C 93.8828 3.98933 97.3257 4.18305 100.758 4.39106C 101.045 4.40492 101.331 4.48493 101.62 4.56587C 101.774 4.60902 101.929 4.65248 102.086 4.68629C 102.081 4.75129 102.08 4.81916 102.079 4.88691C 102.079 4.95478 102.078 5.02253 102.073 5.0876C 101.936 5.10939 101.796 5.13978 101.656 5.17036C 101.371 5.23249 101.083 5.29548 100.797 5.28871C 96.3518 5.05421 91.917 4.80702 87.4821 4.55982C 85.2698 4.43647 83.0574 4.31318 80.8438 4.19142C 66.2545 3.37867 51.64 2.56922 37.0398 1.77082C 35.8828 1.70765 34.727 1.64314 33.5719 1.57862C 29.4874 1.3506 25.4118 1.123 21.3287 0.959056C 18.4892 0.843272 15.6624 1.12556 12.9433 2.03889C 10.1844 2.94435 7.93899 4.42921 6.17618 6.65205C 5.51565 7.47749 4.84353 8.28828 4.17148 9.09907C 3.49942 9.90986 2.8273 10.7207 2.16678 11.5461C 0.782804 13.3082 0.496245 15.2787 1.43203 17.3258C 3.33432 21.5579 5.82382 25.4445 9.06955 28.7966C 11.4688 31.2893 14.5601 32.3529 17.9257 32.6467C 23.1821 33.0997 28.4385 33.5526 33.7071 33.9009C 36.5918 34.0893 39.4766 34.2783 42.3614 34.4673C 58.4944 35.5243 74.6288 36.5814 90.7594 37.5369C 95.4213 37.8147 100.105 37.8145 104.788 37.8143C 105.928 37.8143 107.068 37.8142 108.208 37.8182C 109.51 37.82 110.842 37.5474 112.131 37.2416C 115.519 36.4108 117.411 33.991 117.368 30.3733C 117.316 26.0863 117.177 21.8233 116.983 17.5413C 116.896 15.6253 115.351 14.3077 114.103 13.2208L 114.103 12.0063Z"/>
</defs>
</svg>
